<?xml version="1.0" encoding="UTF-8"?>
<svg version="1.1" xmlns="http://www.w3.org/2000/svg" width="1080" height="1080">
<path d="M0 0 C1.2060791 0.26119629 2.4121582 0.52239258 3.65478516 0.79150391 C33.01752655 7.29657056 62.55518617 16.67858549 90 29 C91.43520996 29.63736084 91.43520996 29.63736084 92.89941406 30.28759766 C99.97395533 33.4392729 107.00089187 36.6843799 114 40 C114.86334961 40.40831055 115.72669922 40.81662109 116.61621094 41.23730469 C144.14702434 54.36308492 170.77067405 70.46386538 195 89 C195.85561523 89.6494458 195.85561523 89.6494458 196.72851562 90.31201172 C200.50752705 93.18050822 204.26056237 96.08009791 208 99 C208.83789062 99.65355469 209.67578125 100.30710937 210.5390625 100.98046875 C221.38374399 109.54670738 231.82415959 118.65276374 242 128 C242.85368164 128.77802979 242.85368164 128.77802979 243.72460938 129.57177734 C254.33091842 139.25759065 264.29134176 149.41812049 274 160 C274.886875 160.96035156 275.77375 161.92070312 276.6875 162.91015625 C282.02321028 168.75535276 287.0547417 174.82250737 292 181 C292.41475586 181.5151416 292.82951172 182.0302832 293.25683594 182.56103516 C347.62947582 250.20976356 385.10906202 330.64749372 401 416 C401.27021973 417.44802002 401.27021973 417.44802002 401.54589844 418.92529297 C416.32454575 499.53974074 411.8780346 584.45534017 315 815 C305.65514008 828.31800442 295.61261933 841.14734649 285.01123047 853.48632812 C283.04999507 855.77095765 281.09937811 858.06397385 279.15625 860.36401367 C271.59958687 869.25500426 263.65470232 877.65867458 255.37890625 885.88183594 C253.3621951 887.88773626 251.35652639 889.90423998 249.3515625 891.921875 C242.94293922 898.33669099 236.52174915 904.50058023 229.37231445 910.09301758 C226.73088635 912.21632672 224.27667387 914.48690842 221.8125 916.8125 C215.57876753 922.5407947 208.85245379 927.52171134 202.02441406 932.51513672 C200.09891185 933.92745033 198.18462026 935.35354915 196.2734375 936.78515625 C174.37614391 953.12681373 151.15934182 967.27287353 127 980 C126.06978027 980.49113281 125.13956055 980.98226562 124.18115234 981.48828125 C62.63097016 1013.73644997 -4.97690492 1031.51831075 -74 1038 C-74.97428955 1038.09716309 -75.9485791 1038.19432617 -76.95239258 1038.29443359 C-89.70468006 1039.39850201 -102.52278049 1039.24391059 -115.3125 1039.25 C-117.22057938 1039.25101212 -117.22057938 1039.25101212 -119.16720581 1039.25204468 C-138.96587791 1039.23537978 -158.36362836 1038.66586502 -178 1036 C-179.28874023 1035.82839355 -180.57748047 1035.65678711 -181.90527344 1035.47998047 C-212.42022259 1031.34432762 -242.59649551 1025.19019735 -272 1016 C-273.11922852 1015.65211426 -274.23845703 1015.30422852 -275.39160156 1014.94580078 C-348.63732503 991.94466457 -416.18259601 952.79777195 -472.37255859 900.51416016 C-474.17920462 898.83326927 -475.99009018 897.15700098 -477.80078125 895.48046875 C-494.60855533 879.88944356 -494.60855533 879.88944356 -502.02734375 871.25390625 C-503.96447619 869.04058859 -505.95055872 866.87834809 -507.95141602 864.72265625 C-512.67517271 859.62867887 -517.21211057 854.44108168 -521.56640625 849.0234375 C-523.36969368 846.78307719 -525.18847908 844.56232595 -527.02734375 842.3515625 C-534.85948298 832.89759881 -542.08085452 823.13870581 -549 813 C-549.4340918 812.36739258 -549.86818359 811.73478516 -550.31542969 811.08300781 C-573.86249292 776.67642273 -592.87436271 739.82458748 -608 701 C-608.33193359 700.16130371 -608.66386719 699.32260742 -609.00585938 698.45849609 C-621.23455888 667.46304504 -629.17163458 634.73897889 -635 602 C-635.22598877 600.75089844 -635.22598877 600.75089844 -635.45654297 599.4765625 C-638.1449073 584.42932187 -639.62010401 569.21528168 -641 554 C-641.14791992 552.46738525 -641.14791992 552.46738525 -641.29882812 550.90380859 C-642.3392441 538.71260345 -642.24286837 526.47675603 -642.25 514.25 C-642.25100708 513.05191711 -642.25201416 511.85383423 -642.25305176 510.6194458 C-642.24187029 490.89894662 -641.42470013 471.5690978 -639 452 C-638.79914795 450.27112549 -638.79914795 450.27112549 -638.59423828 448.50732422 C-627.18520508 351.71723526 -587.20510059 258.7000699 -516.47961426 171.72183228 C-515.03057885 170.03558471 -513.59286296 168.34027628 -512.15698242 166.64282227 C-504.72688622 157.90631207 -496.94152016 149.62710643 -488.80615234 141.54541016 C-486.86186462 139.61193768 -484.92863436 137.66786287 -482.99609375 135.72265625 C-476.66523319 129.38540596 -470.2861645 123.36644428 -463.26123047 117.79785156 C-460.58264954 115.66817439 -458.11108882 113.41230821 -455.625 111.0625 C-450.25781125 106.1356181 -444.59207539 101.68776924 -438.76416016 97.32714844 C-436.95084278 95.96301984 -435.15240302 94.58093474 -433.35546875 93.1953125 C-362.17128007 38.61193115 -276.63083423 4.40351907 -188 -8 C-187.00983887 -8.14034668 -186.01967773 -8.28069336 -184.99951172 -8.42529297 C-170.81035169 -10.38377076 -156.60759992 -11.43107565 -142.3125 -12.1875 C-141.51147858 -12.23038147 -140.71045715 -12.27326294 -139.88516235 -12.31744385 C-92.85759927 -14.78053066 -45.93859307 -10.01919643 0 0 Z " fill="#FEFEFE" transform="translate(655,28)"/>
<path d="M0 0 C0.66 0 1.32 0 2 0 C18.41867221 30.53083356 31.94311454 61.64079707 38 96 C38.22558594 97.22589844 38.45117188 98.45179688 38.68359375 99.71484375 C46.89274298 152.76293223 29.88446963 208.73218276 -1.10302734 251.84545898 C-2.92834602 254.3339789 -4.78572016 256.79624639 -6.66064453 259.24755859 C-7.94995783 260.93452375 -9.22449575 262.63169137 -10.49609375 264.33203125 C-26.41626709 285.48893627 -44.8103992 306.24039652 -65.05859375 323.33984375 C-67.53444997 325.45702462 -69.91661268 327.66781829 -72.3125 329.875 C-77.18932582 334.31818194 -82.21514701 338.51848437 -87.34960938 342.65869141 C-89.248388 344.20187037 -91.13255739 345.76190797 -93.015625 347.32421875 C-125.98714861 374.67338732 -161.25246596 399.32672888 -196.94433594 422.97216797 C-199.94888612 424.96607927 -202.94808969 426.96775053 -205.9453125 428.97265625 C-218.1893419 437.16194313 -230.48883336 445.26159786 -242.82421875 453.3125 C-321.97226699 504.65513267 -321.97226699 504.65513267 -397.17529297 561.51171875 C-398.77770072 562.81868659 -400.39003018 564.11347021 -402.00390625 565.40625 C-408.25574231 570.42955933 -414.1518435 575.75463449 -420.0078125 581.2265625 C-422.31266321 583.37632046 -424.6614107 585.45757964 -427.0625 587.5 C-435.32593015 594.66047231 -442.98040305 602.62629011 -450 611 C-451.13501953 612.31871094 -451.13501953 612.31871094 -452.29296875 613.6640625 C-482.1800173 648.78713661 -499.81672344 686.70461089 -496.84326172 733.46484375 C-496.19400575 740.81090107 -494.73209724 747.80955365 -492.48828125 754.828125 C-492 757 -492 757 -493 760 C-504.57832712 731.29102526 -514.86004226 702.63565201 -520 672 C-520.23323975 670.65615234 -520.23323975 670.65615234 -520.47119141 669.28515625 C-531.28282246 606.7611803 -516.71042062 547.94089295 -480.57958984 496.22021484 C-469.61068301 480.80271273 -457.41717949 466.47819246 -444.52636719 452.64404297 C-442.85559434 450.84446134 -441.19748409 449.03362349 -439.5390625 447.22265625 C-431.40347803 438.38578419 -422.92458798 430.06148694 -414.08544922 421.93261719 C-411.90573253 419.91264091 -409.7492884 417.87016227 -407.59765625 415.8203125 C-400.82723176 409.37417498 -394.06639032 403.08531432 -386.73828125 397.26953125 C-383.36539571 394.47402983 -380.18799003 391.50270661 -377 388.5 C-372.06491062 383.85328592 -367.00523392 379.4807298 -361.7109375 375.2421875 C-358.71095373 372.76093291 -355.84849592 370.15132395 -353 367.5 C-348.39003752 363.21036948 -343.62216205 359.19588653 -338.71484375 355.24609375 C-335.89326505 352.9116941 -333.19409288 350.48009402 -330.5 348 C-326.08709656 343.94337913 -321.54499238 340.11326307 -316.8828125 336.34765625 C-313.71983953 333.77184764 -310.60682328 331.14294778 -307.5 328.5 C-302.65065425 324.37869662 -297.7483847 320.33008057 -292.8125 316.3125 C-289.68200334 313.73853608 -286.58827539 311.12430914 -283.5 308.5 C-278.65040619 304.37898366 -273.74839194 300.33008646 -268.8125 296.3125 C-265.68200334 293.73853608 -262.58827539 291.12430914 -259.5 288.5 C-254.65040619 284.37898366 -249.74839194 280.33008646 -244.8125 276.3125 C-241.11826545 273.27501826 -237.47524894 270.17927954 -233.83154297 267.08154297 C-230.4614901 264.22153062 -227.05973692 261.40744267 -223.625 258.625 C-218.5055232 254.46076085 -213.53049722 250.14373063 -208.55834961 245.80615234 C-204.82001389 242.55281311 -201.04082601 239.3675424 -197.1875 236.25 C-192.82485541 232.71864219 -188.66196222 229.01562592 -184.515625 225.234375 C-181.98669705 222.98818434 -179.38950086 220.86468782 -176.75 218.75 C-170.98765665 214.0910841 -165.61507994 209.06672284 -160.21484375 204 C-157.215573 201.18856237 -154.14552504 198.47288469 -151.03515625 195.78515625 C-146.82079209 192.0884875 -142.71604129 188.26845445 -138.59423828 184.46923828 C-137.03145241 183.02898631 -135.46701994 181.59054154 -133.90234375 180.15234375 C-130.5944885 177.10917884 -127.29617337 174.0558085 -124 171 C-123.37577148 170.42233887 -122.75154297 169.84467773 -122.10839844 169.24951172 C-104.1120523 152.69591815 -104.1120523 152.69591815 -87.53515625 134.75390625 C-85.77388512 132.74166518 -83.90520161 130.87628014 -82 129 C-78.11974313 125.16417355 -74.544929 121.14484006 -71 117 C-70.09427806 115.95787415 -69.18798197 114.91624715 -68.28125 113.875 C-61.25530601 105.78099269 -54.50055968 97.52134884 -48 89 C-47.19175781 87.9466748 -47.19175781 87.9466748 -46.3671875 86.87207031 C-26.27943415 60.58142052 -9.15190139 31.98326551 0 0 Z " fill="#FF66C4" transform="translate(826,122)"/>
<path d="M0 0 C0.76841217 -0.00067474 1.53682434 -0.00134949 2.32852173 -0.00204468 C58.20341544 0.07462486 124.47098566 11.05721484 166.08666992 51.81298828 C168.16062046 53.92168976 170.1780506 56.07993741 172.1875 58.25 C173.51516688 59.5889758 174.84651721 60.92436026 176.1875 62.25 C169.40234029 68.53531252 162.60247372 74.7994644 155.71484375 80.97265625 C152.85667797 83.54809775 150.02039739 86.14685764 147.1875 88.75 C142.73417383 92.84169207 138.25090112 96.89822977 133.75 100.9375 C130.88149591 103.52615003 128.0327335 106.13585146 125.1875 108.75 C120.73414513 112.84166107 116.25090146 116.89822946 111.75 120.9375 C108.88149591 123.52615003 106.0327335 126.13585146 103.1875 128.75 C98.73414513 132.84166107 94.25090146 136.89822946 89.75 140.9375 C86.88149591 143.52615003 84.0327335 146.13585146 81.1875 148.75 C76.73414513 152.84166107 72.25090146 156.89822946 67.75 160.9375 C64.88149591 163.52615003 62.0327335 166.13585146 59.1875 168.75 C54.73414513 172.84166107 50.25090146 176.89822946 45.75 180.9375 C42.88149591 183.52615003 40.0327335 186.13585146 37.1875 188.75 C32.73414513 192.84166107 28.25090146 196.89822946 23.75 200.9375 C20.88149591 203.52615003 18.0327335 206.13585146 15.1875 208.75 C10.73414513 212.84166107 6.25090146 216.89822946 1.75 220.9375 C-1.11850409 223.52615003 -3.9672665 226.13585146 -6.8125 228.75 C-11.26585487 232.84166107 -15.74909854 236.89822946 -20.25 240.9375 C-23.11850409 243.52615003 -25.9672665 246.13585146 -28.8125 248.75 C-33.26585487 252.84166107 -37.74909854 256.89822946 -42.25 260.9375 C-45.11850755 263.52615315 -47.96691196 266.13623452 -50.8125 268.75 C-52.32289952 270.13431105 -53.8335606 271.51833627 -55.34423828 272.90234375 C-56.77249311 274.21327934 -58.19685188 275.5284557 -59.62109375 276.84375 C-60.48863281 277.6378125 -61.35617187 278.431875 -62.25 279.25 C-63.01183594 279.95125 -63.77367187 280.6525 -64.55859375 281.375 C-66.85861804 283.28836509 -69.21042261 284.78145544 -71.8125 286.25 C-72.02003906 285.0640625 -72.22757813 283.878125 -72.44140625 282.65625 C-75.29213888 267.31902161 -79.82246943 253.53899158 -89.8125 241.25 C-90.49054688 240.40953125 -91.16859375 239.5690625 -91.8671875 238.703125 C-107.39800338 220.46408856 -131.29004224 209.95301186 -154.8125 207.25 C-159.43662448 207.01673199 -164.04728278 206.96084685 -168.67553711 206.98925781 C-170.74427708 206.99997037 -172.81214565 206.98930058 -174.88085938 206.9765625 C-203.22725056 206.94407404 -229.27380234 216.51463685 -250 235.9375 C-262.30022234 248.69255371 -269.97466749 265.10245139 -271.9375 282.6875 C-272.02386719 283.41904297 -272.11023438 284.15058594 -272.19921875 284.90429688 C-272.40878393 286.68560094 -272.61137868 288.46772281 -272.8125 290.25 C-289.42423652 278.47076865 -305.03428767 259.97562639 -310.41796875 240.00390625 C-312.57540067 224.94460423 -310.73356413 213.0027186 -301.875 200.4375 C-300.53540389 198.69702104 -299.18252713 196.96662762 -297.8125 195.25 C-297.33039063 194.61449219 -296.84828125 193.97898437 -296.3515625 193.32421875 C-288.63943699 183.62833841 -275.41721178 172.99777813 -263.93359375 167.99609375 C-261.38326367 166.29424338 -261.38326367 166.29424338 -261.24609375 162.43359375 C-261.22954832 160.85164849 -261.23209135 159.26943042 -261.25 157.6875 C-260.63723128 130.68963107 -249.57916191 106.34965791 -231.8125 86.25 C-230.98492187 85.30125 -230.15734375 84.3525 -229.3046875 83.375 C-224.44425787 77.90515871 -219.49079598 72.86058221 -213.8125 68.25 C-212.84183594 67.44175781 -211.87117188 66.63351562 -210.87109375 65.80078125 C-175.58714639 36.88528425 -130.20709518 18.63935872 -85.8125 9.25 C-84.85456543 9.04181641 -83.89663086 8.83363281 -82.90966797 8.61914062 C-55.65165223 2.76495491 -27.87249261 0.02241012 0 0 Z " fill="#FF66C4" transform="translate(380.8125,320.75)"/>
<path d="M0 0 C0.33 0 0.66 0 1 0 C5.96221173 31.70800507 9.09644765 63.19073326 3 95 C2.86078125 95.77504883 2.7215625 96.55009766 2.578125 97.34863281 C-3.70457286 131.83075463 -21.25777472 160.80204703 -45 186 C-46.09248047 187.17369141 -46.09248047 187.17369141 -47.20703125 188.37109375 C-61.17457773 202.90874417 -78.65901506 213.9542464 -96 224 C-96.66032227 224.38768555 -97.32064453 224.77537109 -98.00097656 225.17480469 C-148.26206908 254.58007252 -205.76286706 270.65184493 -260.93896484 288.08349609 C-332.22081625 310.20443633 -332.22081625 310.20443633 -401 339 C-402.0420459 339.49790039 -403.0840918 339.99580078 -404.15771484 340.50878906 C-429.75320313 352.79723337 -454.11528451 366.78457813 -476 385 C-476.51498047 385.42474609 -477.02996094 385.84949219 -477.56054688 386.28710938 C-491.04958038 397.44664818 -503.33532694 409.32120629 -513.80224609 423.39208984 C-514.91262427 424.88270351 -516.04337941 426.35807912 -517.17578125 427.83203125 C-521.74794277 433.895694 -525.55292476 440.21276133 -529.23828125 446.8359375 C-532.31312189 452.35837856 -532.31312189 452.35837856 -534 455 C-534.33 455 -534.66 455 -535 455 C-539.93266194 410.29384871 -529.56229396 370.34698293 -501.62060547 335.01123047 C-491.71934529 322.72340562 -481.131806 311.12946909 -469 301 C-468.47760742 300.55849609 -467.95521484 300.11699219 -467.41699219 299.66210938 C-446.36673833 281.92456803 -423.20761635 267.05831375 -399.37060547 253.36328125 C-397.7343225 252.42229216 -396.10068785 251.47668812 -394.46923828 250.52734375 C-366.4282072 234.24446742 -337.13638776 220.07302975 -307.63378906 206.65429688 C-303.59297386 204.81469973 -299.55798248 202.9626689 -295.5234375 201.109375 C-281.77396229 194.79849122 -268.00379074 188.53828849 -254.1875 182.375 C-241.22566195 176.58958117 -228.36148412 170.60976892 -215.51341248 164.57749939 C-211.37901487 162.63895878 -207.2338773 160.72519945 -203.08203125 158.82421875 C-177.34225099 147.02467387 -151.83396157 134.69759945 -127.3828125 120.38769531 C-125.22450815 119.13074839 -123.05409284 117.90010717 -120.875 116.6796875 C-100.61897245 105.22322489 -80.73971995 92.06947414 -63 77 C-61.02207092 75.41512093 -59.04297151 73.8317009 -57.0625 72.25 C-53.07524408 68.98340367 -49.41595471 65.53274244 -45.83203125 61.83203125 C-44.10498944 60.10498944 -42.32252556 58.55065296 -40.4375 57 C-36.50910044 53.67935732 -33.2756042 49.95673173 -30 46 C-29.57058105 45.49355957 -29.14116211 44.98711914 -28.69873047 44.46533203 C-17.15927068 30.82490568 -8.19725914 15.83497841 0 0 Z " fill="#5271FF" transform="translate(887,425)"/>
<path d="M0 0 C2.45012116 3.76327392 2.30615561 7.55050107 2.30078125 11.88671875 C2.30720894 13.04963188 2.30720894 13.04963188 2.31376648 14.23603821 C2.31950739 15.88269072 2.32001179 17.52936859 2.31567383 19.17602539 C2.31256748 21.63410081 2.33578419 24.09090632 2.36132812 26.54882812 C2.42396339 41.48418454 0.45828351 55.46254369 -4.6875 69.5625 C-5.03490234 70.53429199 -5.38230469 71.50608398 -5.74023438 72.50732422 C-16.90239178 102.96191315 -36.43342774 130.46266518 -64 148 C-65.0725 148.69480469 -66.145 149.38960937 -67.25 150.10546875 C-76.4707402 155.72707569 -86.2628641 159.43353529 -96.39916992 163.0625 C-98.15185897 163.69427752 -99.89941749 164.34045042 -101.6418457 165 C-108.59731419 167.61450699 -115.62488771 169.62828665 -122.8125 171.5 C-125.12523402 172.11109418 -127.4377368 172.72306423 -129.75 173.3359375 C-130.84054687 173.62436523 -131.93109375 173.91279297 -133.0546875 174.20996094 C-136.49060364 175.13159759 -139.9012078 176.11637274 -143.3125 177.125 C-152.45628766 179.76134754 -161.72883287 181.86591415 -171 184 C-172.2055957 184.27779297 -173.41119141 184.55558594 -174.65332031 184.84179688 C-188.54588614 188.03300199 -202.44179326 191.17223634 -216.43359375 193.90234375 C-223.33482888 195.25198312 -230.22077412 196.67641381 -237.10800171 198.09545898 C-239.30469615 198.54801619 -241.50158398 198.99962522 -243.69848633 199.45117188 C-250.24105268 200.79801514 -256.77896197 202.16175018 -263.30859375 203.5703125 C-268.44446698 204.67612427 -273.58820829 205.72538948 -278.74365234 206.7355957 C-291.95791288 209.32518748 -305.10378438 212.1761998 -318.23583984 215.15234375 C-321.55788143 215.90043873 -324.88214585 216.63691655 -328.20779419 217.36871338 C-408.68309997 233.15820112 -408.68309997 233.15820112 -472.4609375 279.5703125 C-478.93249798 289.78683691 -480.43247037 299.23021956 -478.48828125 311.1328125 C-471.7391977 341.01603791 -448.1180331 364.27012662 -426 384 C-426.66 384.33 -427.32 384.66 -428 385 C-429.8215332 384.23413086 -429.8215332 384.23413086 -432.05078125 382.96484375 C-433.30012451 382.25642334 -433.30012451 382.25642334 -434.57470703 381.53369141 C-435.92991455 380.74357666 -435.92991455 380.74357666 -437.3125 379.9375 C-438.2494873 379.39528809 -439.18647461 378.85307617 -440.15185547 378.29443359 C-450.39338549 372.29325635 -460.26465109 365.78648272 -470 359 C-470.83337891 358.41959961 -471.66675781 357.83919922 -472.52539062 357.24121094 C-487.74403915 346.55234838 -501.82833632 334.9863781 -513 320 C-513.63421875 319.16984375 -514.2684375 318.3396875 -514.921875 317.484375 C-524.72751589 304.15876046 -529.53927879 289.5822306 -528 273 C-522.72697844 247.26263286 -499.47174442 229.21272359 -478.75488281 215.515625 C-457.33232657 201.54554303 -434.52140576 190.21956967 -410.99267578 180.26611328 C-408.12402272 179.05247037 -405.26290236 177.8224176 -402.40234375 176.58984375 C-350.33467677 154.33614106 -296.18038888 136.9733223 -242.48123455 119.15036869 C-218.66634491 111.24540875 -194.90023837 103.22948033 -171.26306152 94.80493164 C-168.95559866 93.98420722 -166.64651089 93.16821414 -164.33691406 92.35351562 C-132.96752701 81.28211169 -101.9838574 69.46135437 -72 55 C-70.6385083 54.3510376 -70.6385083 54.3510376 -69.24951172 53.68896484 C-43.25611566 41.26729972 -14.83823855 25.71049628 0 0 Z " fill="#38B6FF" transform="translate(896,626)"/>
<path d="M0 0 C0 3.70002983 -1.08704512 5.31214616 -2.89453125 8.53125 C-3.51553711 9.64242188 -4.13654297 10.75359375 -4.77636719 11.8984375 C-5.1087439 12.48592773 -5.44112061 13.07341797 -5.78356934 13.67871094 C-6.81992247 15.51313837 -7.84504339 17.35347706 -8.86816406 19.1953125 C-11.91050553 24.65199288 -14.99223987 30.06613436 -18.33984375 35.34375 C-25.13573505 46.13462055 -28.01726759 55.29738168 -29 68 C-29.18755859 69.91039062 -29.18755859 69.91039062 -29.37890625 71.859375 C-29.63051045 74.5728785 -29.84253862 77.27971896 -30 80 C-30.66 80 -31.32 80 -32 80 C-34.26616615 73.74538144 -35.83795007 67.54849313 -37 61 C-37.89203125 61.91523438 -38.7840625 62.83046875 -39.703125 63.7734375 C-40.88514805 64.97422282 -42.06745461 66.17472909 -43.25 67.375 C-43.83652344 67.97828125 -44.42304688 68.5815625 -45.02734375 69.203125 C-45.60097656 69.78320312 -46.17460937 70.36328125 -46.765625 70.9609375 C-47.28930664 71.49509277 -47.81298828 72.02924805 -48.35253906 72.57958984 C-51.19682783 75.03188268 -53.37530834 75.95002467 -57.125 76.25 C-60 76 -60 76 -62 74 C-61.37027463 64.51476165 -53.98643915 57.61033248 -47.40625 51.3984375 C-44.74326058 48.74409415 -42.30816719 45.94594626 -39.84716797 43.10546875 C-36.91641489 39.76489057 -33.86457371 36.54192612 -30.8125 33.3125 C-29.49049939 31.90791531 -28.16888984 30.50296246 -26.84765625 29.09765625 C-26.19812988 28.40687988 -25.54860352 27.71610352 -24.87939453 27.00439453 C-16.50793326 18.07614082 -8.26349549 9.02803149 0 0 Z " fill="#FFFAFD" transform="translate(237,379)"/>
<path d="M0 0 C0 3.52032428 -0.70351351 4.4385343 -3 7 C-3.66 7 -4.32 7 -5 7 C-3.70700306 4.11562221 -2.34058637 2.12780579 0 0 Z " fill="#FFE5F5" transform="translate(237,379)"/>
</svg>
